<?xml version="1.0" encoding="UTF-8"?>
<svg version="1.1" xmlns="http://www.w3.org/2000/svg" width="1024" height="1024">
<path d="M0 0 C337.92 0 675.84 0 1024 0 C1024 337.92 1024 675.84 1024 1024 C686.08 1024 348.16 1024 0 1024 C0 686.08 0 348.16 0 0 Z " fill="#FEFEFE" transform="translate(0,0)"/>
<path d="M0 0 C15.13145542 11.59423208 23.66724074 27.53334679 27.0859375 46.1015625 C27.36715283 48.84583623 27.32614167 51.55547125 27.3125 54.3125 C14.16992188 58.14575195 1.02734375 61.97900391 -12.11523438 65.81225586 C-13.32333015 66.16462028 -13.32333015 66.16462028 -14.55583191 66.52410316 C-16.17245536 66.99561411 -17.78908336 67.46710946 -19.40571594 67.9385891 C-23.3821566 69.09831086 -27.35852041 70.25829473 -31.3347168 71.41885376 C-38.32691876 73.45944698 -45.31983969 75.49736478 -52.31640625 77.52294922 C-53.44445679 77.85008408 -54.57250732 78.17721893 -55.73474121 78.51426697 C-57.78513876 79.10861669 -59.83597283 79.70146345 -61.8873291 80.29249573 C-62.76949097 80.54845016 -63.65165283 80.8044046 -64.56054688 81.06811523 C-65.69502258 81.39573097 -65.69502258 81.39573097 -66.85241699 81.72996521 C-68.75569968 82.28175384 -68.75569968 82.28175384 -70.6875 83.3125 C-67.06125516 91.76816769 -63.55694479 97.13090523 -55.04296875 100.9453125 C-50.45109592 102.58915959 -46.15675173 102.8119869 -41.3125 102.75 C-40.05796021 102.73755249 -40.05796021 102.73755249 -38.77807617 102.72485352 C-29.23182725 102.46378335 -22.35856955 99.85423137 -15.375 93.22265625 C-10.11107037 87.26418035 -9.27239282 81.2369641 -7.6875 73.3125 C4.1925 73.9725 16.0725 74.6325 28.3125 75.3125 C26.69923703 93.05839263 20.83613065 109.06346073 7.3125 121.3125 C3.80060801 123.97507686 0.17900313 126.2034983 -3.6875 128.3125 C-4.51636719 128.77398438 -5.34523438 129.23546875 -6.19921875 129.7109375 C-24.78614636 139.10402496 -48.81466346 140.49114281 -68.6875 134.703125 C-79.83990679 131.03312866 -90.12341813 125.38190566 -98.6875 117.3125 C-99.38101562 116.66023437 -100.07453125 116.00796875 -100.7890625 115.3359375 C-115.63158936 100.03495421 -119.31600713 80.81866577 -119.16064453 60.25854492 C-118.678193 41.66590622 -113.13370445 26.35437169 -100.6875 12.3125 C-100.16800781 11.69890625 -99.64851563 11.0853125 -99.11328125 10.453125 C-90.59902375 1.1024543 -78.58851548 -4.96843266 -66.6875 -8.6875 C-65.2025 -9.16509766 -65.2025 -9.16509766 -63.6875 -9.65234375 C-42.93847504 -15.39537744 -17.77387668 -12.21030864 0 0 Z " fill="#29588C" transform="translate(490.6875,423.6875)"/>
<path d="M0 0 C9.50537037 7.33958978 15.08383205 15.99265033 17.46875 27.90625 C17.7424585 31.50842651 17.72192125 35.09574183 17.69580078 38.70678711 C17.69609283 39.77094849 17.69638489 40.83510986 17.69668579 41.93151855 C17.69529774 45.4322946 17.67976105 48.9328551 17.6640625 52.43359375 C17.66033051 54.86739485 17.65748442 57.30119746 17.65548706 59.73500061 C17.64786528 66.12842994 17.62822919 72.52176783 17.6060791 78.91516113 C17.58558938 85.44407922 17.57647865 91.97301213 17.56640625 98.50195312 C17.54498199 111.30343197 17.50981161 124.10481906 17.46875 136.90625 C3.60875 136.90625 -10.25125 136.90625 -24.53125 136.90625 C-24.55703125 130.84894531 -24.5828125 124.79164063 -24.609375 118.55078125 C-24.63457076 114.69071415 -24.66092468 110.8307233 -24.69140625 106.97070312 C-24.73957425 100.85717581 -24.78368136 94.7438252 -24.80224609 88.63012695 C-24.81750016 83.69562894 -24.85209905 78.76159634 -24.89955902 73.82730675 C-24.91428317 71.95410925 -24.92228581 70.08084528 -24.92313385 68.2075901 C-24.78846375 50.35815237 -24.78846375 50.35815237 -31.84375 34.28125 C-37.66298934 29.1386664 -42.84268882 28.28216059 -50.4609375 28.4921875 C-56.93282543 29.36498664 -61.73804387 32.19100936 -66.40625 36.65625 C-71.6084524 44.61255955 -73.66604738 51.62280574 -73.73657227 61.07128906 C-73.74647186 61.8911731 -73.75637146 62.71105713 -73.76657104 63.55578613 C-73.79811483 66.26111989 -73.82291529 68.96647119 -73.84765625 71.671875 C-73.86823193 73.54946342 -73.88922856 75.42704727 -73.91062927 77.30462646 C-73.96578655 82.2430857 -74.0152238 87.1815863 -74.06347656 92.12011719 C-74.12257699 98.04731769 -74.18877004 103.9744427 -74.25377655 109.90158081 C-74.35170624 118.90309105 -74.44061692 127.90465001 -74.53125 136.90625 C-88.72125 136.90625 -102.91125 136.90625 -117.53125 136.90625 C-117.53125 89.38625 -117.53125 41.86625 -117.53125 -7.09375 C-103.34125 -7.09375 -89.15125 -7.09375 -74.53125 -7.09375 C-74.03625 0.82625 -74.03625 0.82625 -73.53125 8.90625 C-72.4175 7.71 -71.30375 6.51375 -70.15625 5.28125 C-51.78837403 -12.89395594 -21.06928856 -14.624565 0 0 Z " fill="#28588C" transform="translate(349.53125,423.09375)"/>
<path d="M0 0 C51.48 0 102.96 0 156 0 C156 35 156 35 149.5625 43.5 C145.66796875 46.44140625 145.66796875 46.44140625 143.74755859 47.73486328 C141.15295252 49.61321599 139.33023685 51.91846102 137.375 54.4375 C136.67890625 55.32050781 135.9828125 56.20351563 135.265625 57.11328125 C134.14414062 58.54220703 134.14414062 58.54220703 133 60 C132.05991269 61.14148656 131.11703807 62.28068141 130.171875 63.41796875 C101.04069949 98.67084462 85.54683958 139.17932903 79 184 C63.16 184 47.32 184 31 184 C34.54593043 162.72441743 34.54593043 162.72441743 36.6875 154.3125 C36.94096191 153.3126709 37.19442383 152.3128418 37.45556641 151.28271484 C41.99785469 133.901037 48.27423497 117.20507758 56 101 C56.31936523 100.32420898 56.63873047 99.64841797 56.96777344 98.95214844 C67.39710004 77.0240922 80.45253726 58.65695529 96 40 C64.32 39.67 32.64 39.34 0 39 C0 26.13 0 13.26 0 0 Z " fill="#29598D" transform="translate(650,376)"/>
<path d="M0 0 C12.87 0 25.74 0 39 0 C39 12.87 39 25.74 39 39 C47.58 39 56.16 39 65 39 C65 50.22 65 61.44 65 73 C56.42 73 47.84 73 39 73 C39.06305864 80.96315596 39.13858689 88.92590007 39.23571491 96.88870335 C39.28033056 100.58666848 39.31960552 104.28452568 39.34643555 107.98266602 C39.37255719 111.55552792 39.4130207 115.12797253 39.46318626 118.70057487 C39.47979545 120.05957767 39.49134664 121.41865255 39.49761391 122.77774239 C39.34893037 132.87320911 39.34893037 132.87320911 43 142 C50.02362024 147.4071174 50.02362024 147.4071174 65 147 C65 158.55 65 170.1 65 182 C52.6032424 185.38093389 52.6032424 185.38093389 48.24609375 185.3984375 C47.28896484 185.40230469 46.33183594 185.40617188 45.34570312 185.41015625 C44.38599609 185.39855469 43.42628906 185.38695312 42.4375 185.375 C41.47392578 185.38660156 40.51035156 185.39820313 39.51757812 185.41015625 C31.17827844 185.37641667 23.45935059 183.80325417 16.1875 179.5625 C15.50042969 179.17191406 14.81335938 178.78132812 14.10546875 178.37890625 C9.59223406 175.42311433 6.31004753 172.48749378 3.375 167.9375 C2.80523438 167.08027344 2.23546875 166.22304688 1.6484375 165.33984375 C-3.55992386 154.78735806 -3.40290644 144.33936804 -3.29296875 132.86328125 C-3.28736231 131.13022736 -3.28309718 129.39716866 -3.28010559 127.66410828 C-3.2687392 123.1382192 -3.2393443 118.61262636 -3.20599365 114.08685303 C-3.17511421 109.45442713 -3.16156233 104.82195263 -3.14648438 100.18945312 C-3.1144654 91.12617308 -3.06337036 82.06311133 -3 73 C-3.78238037 73.00523682 -4.56476074 73.01047363 -5.37084961 73.01586914 C-8.89305833 73.03657106 -12.4152543 73.04963838 -15.9375 73.0625 C-17.16919922 73.07087891 -18.40089844 73.07925781 -19.66992188 73.08789062 C-20.83974609 73.09111328 -22.00957031 73.09433594 -23.21484375 73.09765625 C-24.84087524 73.10551147 -24.84087524 73.10551147 -26.49975586 73.11352539 C-29 73 -29 73 -30 72 C-30.08843793 69.55169574 -30.11528752 67.13179401 -30.09765625 64.68359375 C-30.0962413 63.95253922 -30.09482635 63.22148468 -30.09336853 62.46827698 C-30.08775408 60.12464368 -30.07519922 57.78110461 -30.0625 55.4375 C-30.05748686 53.85221492 -30.05292363 52.26692834 -30.04882812 50.68164062 C-30.03777997 46.7877239 -30.02050572 42.89387795 -30 39 C-29.18523193 38.87592773 -28.37046387 38.75185547 -27.53100586 38.62402344 C-26.45729736 38.45418945 -25.38358887 38.28435547 -24.27734375 38.109375 C-23.21507568 37.94405273 -22.15280762 37.77873047 -21.05834961 37.60839844 C-13.803274 36.16514399 -9.22255165 33.15286098 -5 27 C-2.04057182 21.22911505 -1.3173799 15.98244094 -0.8125 9.5625 C-0.4103125 4.8290625 -0.4103125 4.8290625 0 0 Z " fill="#28588C" transform="translate(541,377)"/>
<path d="M0 0 C0.33 0 0.66 0 1 0 C1 43.89 1 87.78 1 133 C-40.25 133 -81.5 133 -124 133 C-123.505 132.01 -123.505 132.01 -123 131 C-120.28469264 130.47689513 -117.61169379 130.05816647 -114.875 129.6875 C-101.37201293 127.63558206 -89.21898161 123.1094908 -77 117 C-76.05382812 116.52691406 -75.10765625 116.05382812 -74.1328125 115.56640625 C-63.98424053 110.2621243 -55.29410582 103.54737703 -46.99609375 95.6875 C-45 94 -45 94 -43 94 C-42.61328125 93.11441406 -42.61328125 93.11441406 -42.21875 92.2109375 C-40.8982925 89.81549217 -39.52121753 88.45569293 -37.5 86.625 C-14.2293609 63.94670444 -4.28001348 31.2494025 0 0 Z " fill="#F6F6F6" transform="translate(1023,891)"/>
<path d="M0 0 C4.63876549 4.17878706 7.77304596 8.17477614 10 14 C2.47301838 15.95860436 -5.05463369 17.91460825 -12.58315849 19.86727142 C-16.07872367 20.77399909 -19.57404928 21.68162954 -23.06884766 22.59130859 C-26.43991465 23.4687458 -29.81158416 24.34383054 -33.18368912 25.2172699 C-35.09968226 25.71420977 -37.01503931 26.21360008 -38.9303894 26.7130127 C-40.67196823 27.16347961 -40.67196823 27.16347961 -42.44873047 27.62304688 C-43.47465302 27.88952026 -44.50057556 28.15599365 -45.55758667 28.43054199 C-48 29 -48 29 -50 29 C-49.79436228 19.16677832 -47.47764295 11.4784702 -40.75 4.125 C-30.3833205 -5.47210068 -11.98522324 -7.67707656 0 0 Z " fill="#FCFCFD" transform="translate(464,449)"/>
<path d="M0 0 C5.04714221 3.01505312 8.86966463 6.34727515 10.7734375 12.05859375 C11.56456036 18.42148189 11.02633718 23.08967233 7.2734375 28.3671875 C3.4773454 32.64767677 -0.77341121 34.81808872 -6.4140625 35.37109375 C-12.50231753 34.87205645 -17.14245502 32.64354216 -21.1640625 27.99609375 C-24.76935119 22.86128864 -24.73084916 18.13857822 -24.2265625 12.05859375 C-22.44640511 6.61340645 -18.8383015 3.27632982 -14.2265625 0.05859375 C-9.45849144 -1.53076327 -4.72202224 -1.99650414 0 0 Z " fill="#45C43B" transform="translate(794.2265625,526.94140625)"/>
<path d="M0 0 C0 2.97 0 5.94 0 9 C-1.14855469 9.23074219 -2.29710937 9.46148437 -3.48046875 9.69921875 C-35.08743161 16.2474245 -58.05143897 32.33022928 -76 59 C-77.98 57.35 -79.96 55.7 -82 54 C-80.49970153 49.45648249 -77.95404398 46.00518171 -75 42.3125 C-74.26197144 41.38775879 -74.26197144 41.38775879 -73.5090332 40.44433594 C-56.47031603 19.40374957 -28.20908924 0 0 0 Z " fill="#2FB426" transform="translate(440,372)"/>
<path d="M0 0 C0 2.97 0 5.94 0 9 C-1.16015625 9.23074219 -2.3203125 9.46148437 -3.515625 9.69921875 C-29.33059421 15.00298121 -46.0786282 26.61111183 -60.58203125 48.48828125 C-60.97624268 49.09196533 -61.3704541 49.69564941 -61.77661133 50.31762695 C-63.04632796 52.06370904 -64.43637099 53.51561373 -66 55 C-68.125 52.375 -68.125 52.375 -70 49 C-66.76262098 34.68532411 -50.39805705 20.09246798 -38.375 12.4375 C-27.04309616 6.02656767 -13.27539692 0 0 0 Z " fill="#36B72D" transform="translate(440,389)"/>
<path d="M0 0 C0.7940625 -0.01417969 1.588125 -0.02835938 2.40625 -0.04296875 C4.5 0.1875 4.5 0.1875 6.5 2.1875 C6.83 1.5275 7.16 0.8675 7.5 0.1875 C8.82 0.1875 10.14 0.1875 11.5 0.1875 C11.62403121 4.36830601 11.71453601 8.54812502 11.7746582 12.73022461 C11.79973147 14.15131291 11.83379999 15.57227313 11.87719727 16.99291992 C11.93817858 19.04117462 11.96627762 21.08771883 11.98828125 23.13671875 C12.01446533 24.36737061 12.04064941 25.59802246 12.06762695 26.8659668 C11.34301297 31.10612732 9.82490442 32.55154527 6.5 35.1875 C3.74609375 35.74609375 3.74609375 35.74609375 0.9375 35.625 C0.00808594 35.60308594 -0.92132813 35.58117187 -1.87890625 35.55859375 C-4.53501904 35.18254201 -6.24560932 34.62119115 -8.5 33.1875 C-9.75 31.0625 -9.75 31.0625 -10.5 29.1875 C-8.25 28.5 -8.25 28.5 -5.5 28.1875 C-4.860625 28.6825 -4.22125 29.1775 -3.5625 29.6875 C-1.50230871 31.51984732 -1.50230871 31.51984732 1.625 31 C4.60154442 30.41139082 4.60154442 30.41139082 6.5 28.1875 C6.66687448 25.60395782 6.66687448 25.60395782 6.5 23.1875 C5.51 23.8475 4.52 24.5075 3.5 25.1875 C-3.44677871 25.85976891 -3.44677871 25.85976891 -7.4375 23.3125 C-11.32653461 19.30561586 -10.82526592 15.56430263 -10.79296875 10.18359375 C-10.38568226 6.01841059 -9.30221563 4.23696995 -6.5 1.1875 C-4.14653604 0.01076802 -2.6193967 0.02126134 0 0 Z " fill="#272626" transform="translate(409.5,594.8125)"/>
<path d="M0 0 C3.5544915 1.39088798 4.71251242 2.56381194 6.8125 5.75 C8.62966135 10.72328368 8.6530711 14.30201513 6.75 19.25 C4.96692883 22.05196898 3.803085 23.29163997 1 25 C-2.72685547 25.66650172 -6.26531351 25.60861558 -10 25 C-12.89683868 22.7984026 -14.39297231 21.21405538 -16 18 C-16.55601425 12.93206684 -16.55831633 9.07812809 -14.1875 4.5 C-9.82724111 -0.48315302 -6.24947159 -0.69316322 0 0 Z " fill="#222122" transform="translate(349,595)"/>
<path d="M0 0 C3.18565463 1.79193073 4.52569233 3.16431505 6.3125 6.3125 C7.5207935 11.03582913 7.50725922 14.68112602 5.75 19.25 C3.96688168 22.05204308 2.80068983 23.28819483 0 25 C-3.7456064 25.72009423 -7.25124909 25.70532054 -11 25 C-13.93719855 22.907486 -15.39541505 20.20916989 -17 17 C-17.37414872 11.38776913 -17.16077934 7.85405398 -14 3 C-9.71170919 -0.90690269 -5.55372196 -0.81010531 0 0 Z " fill="#323031" transform="translate(388,595)"/>
<path d="M0 0 C0.845625 -0.00773438 1.69125 -0.01546875 2.5625 -0.0234375 C5.5601072 0.46655598 6.80516155 1.2867209 9 3.375 C9.54589844 5.73510742 9.54589844 5.73510742 9.609375 8.48046875 C9.64160156 9.46337891 9.67382812 10.44628906 9.70703125 11.45898438 C9.72121094 12.48314453 9.73539062 13.50730469 9.75 14.5625 C9.77964844 15.59826172 9.80929687 16.63402344 9.83984375 17.70117188 C9.91057245 20.25919312 9.96325257 22.81630158 10 25.375 C8.68 25.375 7.36 25.375 6 25.375 C6 24.715 6 24.055 6 23.375 C5.175 23.890625 4.35 24.40625 3.5 24.9375 C-1.10538563 26.82899767 -3.18754844 26.55838973 -8 25.375 C-10.64361026 23.14445384 -10.93278396 21.77829625 -11.5 18.375 C-11 15.375 -11 15.375 -8.75 13.0625 C-4.05364708 10.18064707 -0.49784961 10.26927212 5 10.375 C4.34 8.725 3.68 7.075 3 5.375 C0.36 5.375 -2.28 5.375 -5 5.375 C-5.33 6.365 -5.66 7.355 -6 8.375 C-7.32 8.375 -8.64 8.375 -10 8.375 C-9.67903107 5.40603738 -9.47142128 3.8220008 -7.265625 1.73046875 C-4.61898588 0.14704845 -3.06251917 -0.02801085 0 0 Z " fill="#3A3839" transform="translate(448,594.625)"/>
<path d="M0 0 C2.75569447 2.18159145 4.43588747 3.87177494 6 7 C6 9.31 6 11.62 6 14 C0.39 14 -5.22 14 -11 14 C-8.81854202 20.08537742 -8.81854202 20.08537742 -5.0625 21.0625 C-1.50402651 20.98987809 -0.69059644 20.15247715 2 18 C4.25 18.3125 4.25 18.3125 6 19 C4.63016497 22.16115776 4.0109362 22.9927092 1 25 C-3.76821439 25.69502786 -7.76556158 25.69437161 -12 23.3125 C-15.01769869 19.82328588 -15.83640712 17.23863181 -16.4375 12.6875 C-15.87283118 7.92814852 -13.98426642 4.70772495 -11 1 C-7.52736727 -0.73631636 -3.78806987 -0.60190402 0 0 Z " fill="#252424" transform="translate(271,595)"/>
<path d="M0 0 C1.32 0 2.64 0 4 0 C4.33 0.66 4.66 1.32 5 2 C5.66 1.34 6.32 0.68 7 0 C9.0234375 -0.3359375 9.0234375 -0.3359375 11.375 -0.375 C12.53128906 -0.41753906 12.53128906 -0.41753906 13.7109375 -0.4609375 C16 0 16 0 18.2734375 1.3515625 C21.02732001 5.57584382 20.4202862 9.83134848 20.25 14.75 C20.23195313 15.73355469 20.21390625 16.71710937 20.1953125 17.73046875 C20.14824126 20.15463783 20.08250742 22.57682059 20 25 C18.68 25 17.36 25 16 25 C15.93941406 23.72382812 15.87882812 22.44765625 15.81640625 21.1328125 C15.73200432 19.46352984 15.64735614 17.79425963 15.5625 16.125 C15.52318359 15.28324219 15.48386719 14.44148437 15.44335938 13.57421875 C15.38051758 12.36572266 15.38051758 12.36572266 15.31640625 11.1328125 C15.27974854 10.38918457 15.24309082 9.64555664 15.20532227 8.87939453 C15.10044135 6.91135688 15.10044135 6.91135688 14 5 C10.58357241 4.74984127 10.58357241 4.74984127 7 5 C5.0243438 7.96348429 4.73623141 8.68020373 4.5859375 12.01171875 C4.54726563 12.76904297 4.50859375 13.52636719 4.46875 14.30664062 C4.4378125 15.09232422 4.406875 15.87800781 4.375 16.6875 C4.33632813 17.48478516 4.29765625 18.28207031 4.2578125 19.10351562 C4.16367506 21.06863475 4.08075368 23.0342854 4 25 C2.68 25 1.36 25 0 25 C0 16.75 0 8.5 0 0 Z " fill="#010101" transform="translate(308,595)"/>
<path d="M0 0 C3.125 2.3125 3.125 2.3125 5 5 C5 5.99 5 6.98 5 8 C3.68 8.33 2.36 8.66 1 9 C0.62875 8.34 0.2575 7.68 -0.125 7 C-1.89345966 4.69730833 -1.89345966 4.69730833 -5 4.5625 C-8.33248088 5.04848679 -9.0102603 5.40115631 -11 8 C-11.87255939 12.26846619 -11.67327068 15.9124089 -9.375 19.625 C-7.00646094 21.27015446 -7.00646094 21.27015446 -3.875 20.9375 C-0.70825068 20.23305313 -0.70825068 20.23305313 1 17 C2.32 17.33 3.64 17.66 5 18 C4.63906058 20.61681078 4.24357682 21.77091516 2.29296875 23.60546875 C-1.8369238 26.11717512 -6.33575168 25.75318973 -11 25 C-14.41311667 22.47429367 -15.66637768 21.00086696 -17 17 C-17.55548996 12.21914375 -17.46174709 8.87572723 -15.1875 4.5625 C-10.76251712 -0.62105138 -6.48203568 -1.03217129 0 0 Z " fill="#2B2A2B" transform="translate(298,595)"/>
<path d="M0 0 C8.25 0 16.5 0 25 0 C25 1.32 25 2.64 25 4 C21.7 4 18.4 4 15 4 C15 13.9 15 23.8 15 34 C13.68 34 12.36 34 11 34 C11 24.1 11 14.2 11 4 C7.37 4 3.74 4 0 4 C0 2.68 0 1.36 0 0 Z " fill="#282728" transform="translate(232,586)"/>
<path d="M0 0 C2.375 1.4375 2.375 1.4375 4 4 C4.62490595 7.13036999 4.63913023 9.87104069 4 13 C1.875 16.125 1.875 16.125 -1 18 C-4.45905712 18.06918114 -6.17295771 17.66163383 -8.875 15.5 C-10.59341883 11.68129149 -10.67162449 8.11275669 -10 4 C-7.35478334 -0.1713032 -4.79556761 -0.79926127 0 0 Z " fill="#FAFAFA" transform="translate(386,599)"/>
<path d="M0 0 C3.5625 0.5625 3.5625 0.5625 6 2.625 C7.94951789 6.29009364 8.07551543 8.45837659 7.5625 12.5625 C6.4375 15.4375 6.4375 15.4375 4.5625 17.5625 C0.8704038 18.92697033 -0.72610865 18.88726562 -4.3125 17.25 C-7.09153306 13.73534055 -6.95950563 11.36696199 -6.90625 7 C-6.03289697 2.45856423 -4.56049377 0.74626262 0 0 Z " fill="#FAFAFA" transform="translate(344.4375,598.4375)"/>
<path d="M0 0 C3.16035617 0.53793297 4.0819064 0.96076665 5.9375 3.5 C7.53688696 6.69877392 7.29498026 10.02144213 6.9375 13.5 C5.9375 16 5.9375 16 3.9375 17.5 C1.13705997 18.11259626 -1.26831569 18.16361877 -4.0625 17.5 C-6.74376027 14.73495035 -7.024469 12.80424799 -7.5 9 C-6.85395511 3.83164086 -5.35444023 0.87419432 0 0 Z " fill="#FAFAFA" transform="translate(410.0625,598.5)"/>
<path d="M0 0 C0 3.82062013 -0.97240656 4.35445164 -3.5625 7.0625 C-7.87374336 11.73493487 -11.47294253 16.72043586 -15 22 C-16.98 20.35 -18.96 18.7 -21 17 C-19.55049595 12.64352355 -17.32252888 9.68242711 -14.375 6.1875 C-13.55773437 5.21167969 -12.74046875 4.23585938 -11.8984375 3.23046875 C-11.27195312 2.49441406 -10.64546875 1.75835937 -10 1 C-8.02 1.99 -6.04 2.98 -4 4 C-2.68 2.68 -1.36 1.36 0 0 Z " fill="#37B52E" transform="translate(379,409)"/>
<path d="M0 0 C0 2.97 0 5.94 0 9 C-4.58531736 9.68291961 -9.16850495 10.24805457 -13.77734375 10.74609375 C-16.86243573 11.09852078 -19.92884981 11.54259465 -23 12 C-21.86112021 8.47243077 -20.52201514 5.74068698 -18 3 C-12.15390121 0.76371192 -6.23475466 0 0 0 Z " fill="#40BD35" transform="translate(440,372)"/>
<path d="M0 0 C1.29550781 -0.03867187 1.29550781 -0.03867187 2.6171875 -0.078125 C5.7006811 0.32532276 6.88623301 1.10972017 9.125 3.25 C9.67089844 5.61010742 9.67089844 5.61010742 9.734375 8.35546875 C9.76660156 9.33837891 9.79882812 10.32128906 9.83203125 11.33398438 C9.84621094 12.35814453 9.86039062 13.38230469 9.875 14.4375 C9.90464844 15.47326172 9.93429687 16.50902344 9.96484375 17.57617188 C10.03557245 20.13419312 10.08825257 22.69130158 10.125 25.25 C8.805 25.25 7.485 25.25 6.125 25.25 C6.125 24.59 6.125 23.93 6.125 23.25 C5.3 23.765625 4.475 24.28125 3.625 24.8125 C-0.98038563 26.70399767 -3.06254844 26.43338973 -7.875 25.25 C-10.59188375 22.95762934 -10.82648147 21.65432107 -11.25 18.125 C-11.12625 17.17625 -11.0025 16.2275 -10.875 15.25 C-9.885 14.59 -8.895 13.93 -7.875 13.25 C-8.535 15.23 -9.195 17.21 -9.875 19.25 C-9.215 19.25 -8.555 19.25 -7.875 19.25 C-7.66875 18.46625 -7.4625 17.6825 -7.25 16.875 C-5.875 14.25 -5.875 14.25 -3.0625 12.9375 C-0.19703075 12.31945761 2.21063333 12.07856667 5.125 12.25 C1.89984237 13.98662334 -1.38829166 15.1405928 -4.875 16.25 C-5.205 17.9 -5.535 19.55 -5.875 21.25 C-2.905 20.92 0.065 20.59 3.125 20.25 C3.785 18.27 4.445 16.29 5.125 14.25 C5.455 14.25 5.785 14.25 6.125 14.25 C6.104375 15.343125 6.08375 16.43625 6.0625 17.5625 C5.93955548 21.19384191 5.93955548 21.19384191 7.125 24.25 C8.33139886 23.27018977 8.33139886 23.27018977 8.19433594 21.42407227 C8.10287134 18.88592971 7.99641783 16.34939688 7.875 13.8125 C7.84792969 12.92755859 7.82085937 12.04261719 7.79296875 11.13085938 C7.75300781 10.28458984 7.71304687 9.43832031 7.671875 8.56640625 C7.63932617 7.78724854 7.60677734 7.00809082 7.57324219 6.20532227 C7.26891369 3.84972708 7.26891369 3.84972708 4.125 2.25 C-1.12870771 1.7543672 -4.33870773 2.5946094 -8.875 5.25 C-6.73747324 0.51690503 -5.0928911 0.09067462 0 0 Z " fill="#161516" transform="translate(447.875,594.75)"/>
<path d="M0 0 C1.32 0 2.64 0 4 0 C4 11.55 4 23.1 4 35 C2.68 35 1.36 35 0 35 C0 23.45 0 11.9 0 0 Z " fill="#2A2929" transform="translate(362,585)"/>
<path d="M0 0 C1.32 0 2.64 0 4 0 C4.12403121 4.18080601 4.21453601 8.36062502 4.2746582 12.54272461 C4.29973147 13.96381291 4.33379999 15.38477313 4.37719727 16.80541992 C4.43817858 18.85367462 4.46627762 20.90021883 4.48828125 22.94921875 C4.51446533 24.17987061 4.54064941 25.41052246 4.56762695 26.6784668 C3.84301297 30.91862732 2.32490442 32.36404527 -1 35 C-3.75390625 35.55859375 -3.75390625 35.55859375 -6.5625 35.4375 C-7.49191406 35.41558594 -8.42132813 35.39367187 -9.37890625 35.37109375 C-12.03501904 34.99504201 -13.74560932 34.43369115 -16 33 C-17.25 30.875 -17.25 30.875 -18 29 C-15.75 28.3125 -15.75 28.3125 -13 28 C-12.360625 28.495 -11.72125 28.99 -11.0625 29.5 C-9.00230871 31.33234732 -9.00230871 31.33234732 -5.875 30.8125 C-2.89845558 30.22389082 -2.89845558 30.22389082 -1 28 C-0.35232207 25.42938689 -0.35232207 25.42938689 0 23 C0.33 23 0.66 23 1 23 C1.33 24.65 1.66 26.3 2 28 C2.33 19.09 2.66 10.18 3 1 C2.01 1.33 1.02 1.66 0 2 C0 1.34 0 0.68 0 0 Z " fill="#131213" transform="translate(417,595)"/>
<path d="M0 0 C1.65 0 3.3 0 5 0 C5 8.25 5 16.5 5 25 C3.35 25 1.7 25 0 25 C0 16.75 0 8.5 0 0 Z " fill="#3A3839" transform="translate(427,595)"/>
<path d="M0 0 C1.41493551 -0.10884119 2.83232943 -0.18597617 4.25 -0.25 C5.03890625 -0.29640625 5.8278125 -0.3428125 6.640625 -0.390625 C9 0 9 0 11.28125 1.34375 C14.02029139 5.57681396 13.42031252 9.83058847 13.25 14.75 C13.23195313 15.73355469 13.21390625 16.71710937 13.1953125 17.73046875 C13.14824126 20.15463783 13.08250742 22.57682059 13 25 C11.68 25 10.36 25 9 25 C8.93941406 23.74703125 8.87882812 22.4940625 8.81640625 21.203125 C8.73197744 19.55207276 8.64733061 17.90103165 8.5625 16.25 C8.52318359 15.425 8.48386719 14.6 8.44335938 13.75 C8.40146484 12.95078125 8.35957031 12.1515625 8.31640625 11.328125 C8.27974854 10.5949707 8.24309082 9.86181641 8.20532227 9.10644531 C7.99885215 6.98822395 7.56867914 5.0480544 7 3 C4.69 3 2.38 3 0 3 C0 2.01 0 1.02 0 0 Z " fill="#282828" transform="translate(315,595)"/>
<path d="M0 0 C-5.75 3 -5.75 3 -8 3 C-8.185625 3.5775 -8.37125 4.155 -8.5625 4.75 C-10.29714437 7.46509554 -12.27227334 8.26860219 -15.06640625 9.73828125 C-18.06248046 11.69329533 -20.10829544 14.31353311 -22.375 17.05078125 C-24.43488621 19.52165438 -26.72635561 21.72635561 -29 24 C-29.88268258 25.0770829 -30.75759274 26.16057779 -31.625 27.25 C-34 30 -34 30 -37 31 C-35.00316936 25.44783675 -31.76469464 21.47735289 -28 17 C-27.24589844 16.09894531 -27.24589844 16.09894531 -26.4765625 15.1796875 C-21.37594593 9.61302475 -7.57225217 -2.52408406 0 0 Z " fill="#1E447B" transform="translate(418,419)"/>
<path d="M0 0 C0.8723412 2.99480917 1.10829766 5.63575911 1.0625 8.75 C1.05347656 9.54921875 1.04445313 10.3484375 1.03515625 11.171875 C1.01775391 12.07679688 1.01775391 12.07679688 1 13 C1.66 12.01 2.32 11.02 3 10 C3.556875 11.2065625 3.556875 11.2065625 4.125 12.4375 C5.80442628 15.24683247 5.80442628 15.24683247 8.9375 16 C12.5265034 16 13.290969 15.1672248 16 13 C18.25 13.3125 18.25 13.3125 20 14 C18.63016497 17.16115776 18.0109362 17.9927092 15 20 C10.23178561 20.69502786 6.23443842 20.69437161 2 18.3125 C-1.11846643 14.70677319 -1.91647058 12.19029424 -2.25 7.4375 C-2.02113861 4.29065585 -1.67216798 2.61276248 0 0 Z " fill="#282728" transform="translate(257,600)"/>
<path d="M0 0 C0.33 0 0.66 0 1 0 C1 2.64 1 5.28 1 8 C-14.84 8 -30.68 8 -47 8 C-46.67 6.02 -46.34 4.04 -46 2 C-45.67 3.32 -45.34 4.64 -45 6 C-30.15 6 -15.3 6 0 6 C0 4.02 0 2.04 0 0 Z " fill="#082E6E" transform="translate(728,552)"/>
<path d="M0 0 C0.33 0.99 0.66 1.98 1 3 C-0.65 3.33 -2.3 3.66 -4 4 C-4 4.66 -4 5.32 -4 6 C-8.62197306 8.21854707 -11.76824163 9.38281159 -17 9 C-17 9.99 -17 10.98 -17 12 C-17.66 12 -18.32 12 -19 12 C-18.67 10.68 -18.34 9.36 -18 8 C-18.99 7.67 -19.98 7.34 -21 7 C-18.82075876 5.81516981 -16.63370585 4.65261867 -14.4375 3.5 C-13.82841797 3.16613281 -13.21933594 2.83226562 -12.59179688 2.48828125 C-8.23984839 0.23171537 -5.00414429 -0.36065905 0 0 Z " fill="#50C843" transform="translate(425,395)"/>
<path d="M0 0 C1.0209375 0.4640625 1.0209375 0.4640625 2.0625 0.9375 C1.0725 1.4325 1.0725 1.4325 0.0625 1.9375 C0.3925 2.9275 0.7225 3.9175 1.0625 4.9375 C-1.81315242 9.45638237 -5.49434662 12.03979127 -9.9375 14.9375 C-9.9375 14.2775 -9.9375 13.6175 -9.9375 12.9375 C-11.2575 12.9375 -12.5775 12.9375 -13.9375 12.9375 C-14.2675 11.9475 -14.5975 10.9575 -14.9375 9.9375 C-14.256875 9.586875 -13.57625 9.23625 -12.875 8.875 C-10.21310374 7.11928119 -8.55997045 5.51432209 -6.4375 3.1875 C-3.31605176 -0.07055429 -3.31605176 -0.07055429 0 0 Z " fill="#52C647" transform="translate(383.9375,399.0625)"/>
<path d="M0 0 C2.3125 0.125 2.3125 0.125 5 1 C7.9762636 5.31045074 8.5533606 8.83530104 8 14 C6.64184747 17.27191292 5.50104494 19.49895506 3 22 C0.6171875 22.1953125 0.6171875 22.1953125 -2.125 22.125 C-3.49011719 22.09792969 -3.49011719 22.09792969 -4.8828125 22.0703125 C-5.58148438 22.04710937 -6.28015625 22.02390625 -7 22 C-7 21.67 -7 21.34 -7 21 C-3.97265625 20.36523438 -3.97265625 20.36523438 -0.9453125 19.73046875 C1.37046549 19.07691162 1.37046549 19.07691162 3 16 C3.35420761 13.62392133 3.35420761 13.62392133 3.3125 11.0625 C3.32925781 10.20785156 3.34601563 9.35320313 3.36328125 8.47265625 C2.93316594 5.54509722 1.84772115 4.25724246 0 2 C0 1.34 0 0.68 0 0 Z " fill="#2D2C2D" transform="translate(349,597)"/>
<path d="M0 0 C3.18565463 1.79193073 4.52569233 3.16431505 6.3125 6.3125 C7.87490349 12.42007727 7.16882292 16.58659419 4 22 C3.67 21.34 3.34 20.68 3 20 C3.33 19.34 3.66 18.68 4 18 C4.07092842 15.7927077 4.08415025 13.58332548 4.0625 11.375 C4.05347656 10.18648437 4.04445313 8.99796875 4.03515625 7.7734375 C4.02355469 6.85820313 4.01195312 5.94296875 4 5 C1.83333333 5.83333333 1.83333333 5.83333333 1 8 C0.67 7.01 0.34 6.02 0 5 C-2.97 4.67 -5.94 4.34 -9 4 C-8.34 3.34 -7.68 2.68 -7 2 C-9.24573289 2 -11.21965096 3.81310064 -13 5 C-14.78344178 7.06954847 -14.78344178 7.06954847 -16 9 C-15.72960418 5.75525016 -15.1742292 4.20795098 -13.0625 1.6875 C-8.69609435 -0.71847862 -4.88180513 -0.79489919 0 0 Z " fill="#1B1A1A" transform="translate(388,595)"/>
<path d="M0 0 C-0.639375 0.598125 -1.27875 1.19625 -1.9375 1.8125 C-4.20310389 3.90810337 -4.20310389 3.90810337 -5 7 C-7.50695958 8.49729165 -10.14855895 9.39095434 -13 10 C-15.5 9.1875 -15.5 9.1875 -17 8 C-17 7.01 -17 6.02 -17 5 C-15.23002526 4.18563132 -13.45898848 3.3735706 -11.6875 2.5625 C-10.70136719 2.11003906 -9.71523438 1.65757812 -8.69921875 1.19140625 C-3.41843088 -1.13947696 -3.41843088 -1.13947696 0 0 Z " fill="#51C844" transform="translate(420,379)"/>
<path d="M0 0 C-0.4845815 6.54185022 -0.4845815 6.54185022 -2.6875 8.5 C-5.68650224 9.14843292 -8.03155004 8.67464772 -11 8 C-11 6.35 -11 4.7 -11 3 C-4.5 0 -4.5 0 0 0 Z " fill="#F6F6F6" transform="translate(453,608)"/>
<path d="M0 0 C0.66 0.33 1.32 0.66 2 1 C2.25 3.25 2.25 3.25 2 6 C0.1875 8 0.1875 8 -2 10 C-3.04349839 11.63978318 -4.05607981 13.30094366 -5 15 C-7.1385485 12.8614515 -7.42655063 11.86724686 -8 9 C-8.33 9.99 -8.66 10.98 -9 12 C-9.66 11.67 -10.32 11.34 -11 11 C-8.44108186 6.73513643 -6.3997903 4.31567911 -2 2 C-1.34 1.34 -0.68 0.68 0 0 Z " fill="#46C23B" transform="translate(393,410)"/>
<path d="M0 0 C0 3.96130371 -1.34877125 4.82914401 -4 7.6875 C-4.7425 8.49574219 -5.485 9.30398438 -6.25 10.13671875 C-6.8275 10.75160156 -7.405 11.36648438 -8 12 C-8.92039062 11.24783203 -8.92039062 11.24783203 -9.859375 10.48046875 C-11.88172436 8.72497014 -11.88172436 8.72497014 -14.25 9.3125 C-15.11625 9.6528125 -15.11625 9.6528125 -16 10 C-14.44499019 6.18315774 -11.96404505 3.80804268 -9 1 C-7.35 1.99 -5.7 2.98 -4 4 C-2.68 2.68 -1.36 1.36 0 0 Z " fill="#34B82B" transform="translate(379,409)"/>
<path d="M0 0 C1 3 1 3 0 8 C4.29 8 8.58 8 13 8 C13.33 6.35 13.66 4.7 14 3 C16 5 16 5 16 10 C10.72 10 5.44 10 0 10 C-0.33 12.31 -0.66 14.62 -1 17 C-3 15 -3 15 -3.265625 13.01171875 C-3.19966159 3.19966159 -3.19966159 3.19966159 0 0 Z " fill="#515051" transform="translate(260,598)"/>
<path d="M0 0 C0.66 0.66 1.32 1.32 2 2 C0.9275 1.896875 -0.145 1.79375 -1.25 1.6875 C-5.13975597 1.5867332 -5.13975597 1.5867332 -7.3125 4.5 C-7.869375 5.325 -8.42625 6.15 -9 7 C-9.66 7 -10.32 7 -11 7 C-11 9.97 -11 12.94 -11 16 C-12.33333333 16 -13.66666667 16 -15 16 C-15 13.36 -15 10.72 -15 8 C-14.34 8 -13.68 8 -13 8 C-12.773125 7.236875 -12.54625 6.47375 -12.3125 5.6875 C-9.72247106 0.38410741 -5.62527149 -0.62503017 0 0 Z " fill="#4D4C4D" transform="translate(386,596)"/>
<path d="M0 0 C0.556875 0.268125 1.11375 0.53625 1.6875 0.8125 C1.048125 0.998125 0.40875 1.18375 -0.25 1.375 C-0.930625 1.849375 -1.61125 2.32375 -2.3125 2.8125 C-2.456875 3.92625 -2.60125 5.04 -2.75 6.1875 C-3.3125 9.8125 -3.3125 9.8125 -5.875 12.25 C-7.0815625 13.0234375 -7.0815625 13.0234375 -8.3125 13.8125 C-8.9725 13.4825 -9.6325 13.1525 -10.3125 12.8125 C-9.9825 12.1525 -9.6525 11.4925 -9.3125 10.8125 C-9.9725 10.4825 -10.6325 10.1525 -11.3125 9.8125 C-3.52252907 -0.28561047 -3.52252907 -0.28561047 0 0 Z " fill="#3EBD34" transform="translate(399.3125,387.1875)"/>
<path d="M0 0 C3 3.9 3 3.9 3 6 C-1.29 6 -5.58 6 -10 6 C-7.55868248 -0.1032938 -6.39146132 -0.78262792 0 0 Z " fill="#F9F9F9" transform="translate(270,599)"/>
<path d="M0 0 C0.66 0 1.32 0 2 0 C2.0578304 4.45827926 2.09353855 8.9164628 2.125 13.375 C2.14175781 14.64601563 2.15851563 15.91703125 2.17578125 17.2265625 C2.18222656 18.43828125 2.18867188 19.65 2.1953125 20.8984375 C2.20578613 22.01911621 2.21625977 23.13979492 2.22705078 24.29443359 C2 27 2 27 0 29 C0.01160156 28.24976563 0.02320313 27.49953125 0.03515625 26.7265625 C0.30777557 15.69202932 0.30777557 15.69202932 -1.66015625 4.90625 C-2 3 -2 3 0 0 Z " fill="#575557" transform="translate(418,596)"/>
<path d="M0 0 C2.67461409 2.34028733 3.31356049 4.59817586 4 8 C4.06624507 9.74886981 4.08552595 11.50002748 4.0625 13.25 C4.05347656 14.14203125 4.04445313 15.0340625 4.03515625 15.953125 C4.02355469 16.62859375 4.01195312 17.3040625 4 18 C3.34 18.33 2.68 18.66 2 19 C2.01160156 18.32453125 2.02320313 17.6490625 2.03515625 16.953125 C2.04417969 16.06109375 2.05320312 15.1690625 2.0625 14.25 C2.07410156 13.36828125 2.08570313 12.4865625 2.09765625 11.578125 C2.07827821 8.73046524 2.07827821 8.73046524 1 5 C-2.3 5 -5.6 5 -9 5 C-8.67 4.34 -8.34 3.68 -8 3 C-4.9375 2.375 -4.9375 2.375 -2 2 C-3.258125 2.12375 -4.51625 2.2475 -5.8125 2.375 C-6.52019531 2.44460938 -7.22789062 2.51421875 -7.95703125 2.5859375 C-10.29988142 2.92665391 -10.29988142 2.92665391 -13 5 C-10.31461705 -0.9462051 -6.09392631 -0.81625068 0 0 Z " fill="#161616" transform="translate(414,595)"/>
<path d="M0 0 C0 0.33 0 0.66 0 1 C-2.64 1.33 -5.28 1.66 -8 2 C-8.33 2.99 -8.66 3.98 -9 5 C-9.99 5.495 -9.99 5.495 -11 6 C-11 9.63 -11 13.26 -11 17 C-11.99 16.67 -12.98 16.34 -14 16 C-14.39683933 5.88059701 -14.39683933 5.88059701 -12 2 C-7.9344778 -1.48473332 -5.08358448 -1.0964594 0 0 Z " fill="#4F4E4F" transform="translate(414,597)"/>
<path d="M0 0 C0.33 0 0.66 0 1 0 C1.02578125 0.60328125 1.0515625 1.2065625 1.078125 1.828125 C1.35129475 5.67733517 1.57194754 8.33414062 3.6875 11.625 C6.00088408 13.29351956 6.00088408 13.29351956 9.125 12.8125 C11.91326574 12.12133051 11.91326574 12.12133051 14 11 C13 14 13 14 11 15 C7.04437178 15.25797575 4.40340307 15.09440189 1 13 C1.99 14.485 1.99 14.485 3 16 C-0.16115776 14.63016497 -0.9927092 14.0109362 -3 11 C-2.67 10.01 -2.34 9.02 -2 8 C-1.67 8.33 -1.34 8.66 -1 9 C-1.020625 7.88625 -1.04125 6.7725 -1.0625 5.625 C-1 2 -1 2 0 0 Z " fill="#161516" transform="translate(375,603)"/>
<path d="M0 0 C0.66 0 1.32 0 2 0 C3.0625 1.875 3.0625 1.875 4 4 C3.67 4.66 3.34 5.32 3 6 C2.76725791 8.87910588 2.58027243 11.74146495 2.4375 14.625 C2.39431641 15.42679688 2.35113281 16.22859375 2.30664062 17.0546875 C2.20048543 19.0362511 2.09973145 21.01810271 2 23 C1.34 23 0.68 23 0 23 C0 15.41 0 7.82 0 0 Z " fill="#595758" transform="translate(309,596)"/>
<path d="M0 0 C-0.33 1.32 -0.66 2.64 -1 4 C-0.34 4 0.32 4 1 4 C1 3.01 1 2.02 1 1 C2.98 1 4.96 1 7 1 C1.84290377 5.20710482 -0.28207197 6.12440607 -7 6 C-7.33 4.68 -7.66 3.36 -8 2 C-4.76674728 -0.15550181 -3.68800782 0 0 0 Z " fill="#4FC743" transform="translate(407,403)"/>
<path d="M0 0 C2 1 4 2 6 3 C9.53018797 3.15348643 12.61527952 3.04145246 16 2 C15.67 3.32 15.34 4.64 15 6 C13.25034642 6.05429959 11.50020213 6.09292823 9.75 6.125 C8.77546875 6.14820313 7.8009375 6.17140625 6.796875 6.1953125 C3.9803502 5.99862781 2.39050964 5.44568916 0 4 C0 2.68 0 1.36 0 0 Z " fill="#3C3B3C" transform="translate(401,624)"/>
<path d="M0 0 C1.32 0.33 2.64 0.66 4 1 C2.54955729 5.10958767 0.48889248 8.43258745 -2 12 C-6 7.375 -6 7.375 -6 4 C-4.02 4.495 -4.02 4.495 -2 5 C-0.88214887 2.88214887 -0.88214887 2.88214887 0 0 Z " fill="#33B229" transform="translate(377,432)"/>
<path d="M0 0 C-5.75 3 -5.75 3 -8 3 C-8.3403125 3.8971875 -8.3403125 3.8971875 -8.6875 4.8125 C-10.38626852 7.64378087 -12.00965555 8.64722513 -15 10 C-17.1640625 9.57421875 -17.1640625 9.57421875 -19 9 C-4.46158651 -1.4871955 -4.46158651 -1.4871955 0 0 Z " fill="#16326B" transform="translate(418,419)"/>
<path d="M0 0 C0.66 0 1.32 0 2 0 C2.85807272 9.648551 2.85807272 9.648551 0 13.625 C-4.03221264 16.81716834 -5.98344228 16.51015841 -11 16 C-11 15.67 -11 15.34 -11 15 C-8.98177083 14.57682292 -6.96354167 14.15364583 -4.9453125 13.73046875 C-2.62953451 13.07691162 -2.62953451 13.07691162 -1 10 C-0.54398739 7.49103314 -0.54398739 7.49103314 -0.375 4.8125 C-0.30023438 3.91144531 -0.22546875 3.01039063 -0.1484375 2.08203125 C-0.09945313 1.39496094 -0.05046875 0.70789063 0 0 Z " fill="#5A585A" transform="translate(353,603)"/>
<path d="M0 0 C0.66 0 1.32 0 2 0 C2 0.66 2 1.32 2 2 C5.3 2 8.6 2 12 2 C11.67 2.99 11.34 3.98 11 5 C4.72307692 6.35384615 4.72307692 6.35384615 1.0625 4.5625 C0.381875 4.046875 -0.29875 3.53125 -1 3 C-0.67 2.01 -0.34 1.02 0 0 Z " fill="#3F3E3E" transform="translate(439,615)"/>
<path d="M0 0 C0.99 0 1.98 0 3 0 C3 2.64 3 5.28 3 8 C0.69 8 -1.62 8 -4 8 C-2.25 2.25 -2.25 2.25 0 0 Z " fill="#5ACC4C" transform="translate(436,389)"/>
<path d="M0 0 C1.32 0.33 2.64 0.66 4 1 C3.42655063 3.86724686 3.1385485 4.8614515 1 7 C-1.3828125 7.1953125 -1.3828125 7.1953125 -4.125 7.125 C-5.49011719 7.09792969 -5.49011719 7.09792969 -6.8828125 7.0703125 C-7.58148438 7.04710937 -8.28015625 7.02390625 -9 7 C-9 6.67 -9 6.34 -9 6 C-8.071875 5.938125 -7.14375 5.87625 -6.1875 5.8125 C-2.8109337 5.31172896 -2.8109337 5.31172896 -1.125 2.4375 C-0.75375 1.633125 -0.3825 0.82875 0 0 Z " fill="#373535" transform="translate(299,612)"/>
<path d="M0 0 C9.24154826 -0.20871753 17.9400212 -0.14982548 27 2 C27 2.33 27 2.66 27 3 C24.69 3.33 22.38 3.66 20 4 C20 3.34 20 2.68 20 2 C13.4 1.67 6.8 1.34 0 1 C0 0.67 0 0.34 0 0 Z " fill="#081959" transform="translate(441,412)"/>
<path d="M0 0 C0.99 0 1.98 0 3 0 C3.33 0.99 3.66 1.98 4 3 C4.66 3.66 5.32 4.32 6 5 C-0.28571429 7.42857143 -0.28571429 7.42857143 -4 6 C-2.1875 3 -2.1875 3 0 0 Z " fill="#53C846" transform="translate(421,377)"/>
<path d="M0 0 C2.3125 1.1875 2.3125 1.1875 3.3125 2.1875 C3.38521741 4.54063555 3.39620868 6.89583668 3.375 9.25 C3.36597656 10.54035156 3.35695313 11.83070313 3.34765625 13.16015625 C3.33605469 14.15917969 3.32445312 15.15820312 3.3125 16.1875 C2.9825 16.1875 2.6525 16.1875 2.3125 16.1875 C1.6525 11.8975 0.9925 7.6075 0.3125 3.1875 C-1.9975 2.5275 -4.3075 1.8675 -6.6875 1.1875 C-4.01153344 -0.5964777 -3.15846846 -0.95488581 0 0 Z " fill="#545254" transform="translate(452.6875,596.8125)"/>
<path d="M0 0 C2.4375 1.1875 2.4375 1.1875 5 3 C5.8125 5.6875 5.8125 5.6875 6 8 C4.68 8.33 3.36 8.66 2 9 C1.01 6.36 0.02 3.72 -1 1 C-0.67 0.67 -0.34 0.34 0 0 Z " fill="#353435" transform="translate(297,595)"/>
<path d="M0 0 C0.99 0 1.98 0 3 0 C4.30089831 2.60179663 4.16840078 4.5969188 4.1875 7.5 C4.20167969 8.4796875 4.21585937 9.459375 4.23046875 10.46875 C4 13 4 13 2 15 C1.93941406 14.16855469 1.87882812 13.33710937 1.81640625 12.48046875 C1.73261719 11.39378906 1.64882813 10.30710937 1.5625 9.1875 C1.48128906 8.10855469 1.40007812 7.02960937 1.31640625 5.91796875 C1.09787539 2.94010095 1.09787539 2.94010095 0 0 Z " fill="#595758" transform="translate(389,600)"/>
<path d="M0 0 C-2 1 -4 2 -6 3 C-7.13350534 5.01669827 -7.13350534 5.01669827 -8 7 C-9.32 7 -10.64 7 -12 7 C-12 6.01 -12 5.02 -12 4 C-4.71428571 -0.57142857 -4.71428571 -0.57142857 0 0 Z " fill="#414042" transform="translate(450,596)"/>
<path d="M0 0 C2.475 0.495 2.475 0.495 5 1 C5 1.66 5 2.32 5 3 C5.845625 3.268125 6.69125 3.53625 7.5625 3.8125 C11.13854067 5.0478595 14.53860908 6.476988 18 8 C15 9 15 9 11.6796875 7.63671875 C10.40621225 6.99732252 9.13811495 6.34712669 7.875 5.6875 C7.22917969 5.36587891 6.58335937 5.04425781 5.91796875 4.71289062 C1.13585283 2.27170567 1.13585283 2.27170567 0 0 Z " fill="#0F225F" transform="translate(401,547)"/>
<path d="M0 0 C1.32 0 2.64 0 4 0 C4.33 1.98 4.66 3.96 5 6 C3.02 5.34 1.04 4.68 -1 4 C-1.33 4.66 -1.66 5.32 -2 6 C-2.33 5.34 -2.66 4.68 -3 4 C-1.75 2 -1.75 2 0 0 Z " fill="#4FC443" transform="translate(365,417)"/>
<path d="M0 0 C1 2 1 2 0.3125 4.5 C-1.19365772 7.36887184 -2.14529555 7.71077863 -5 9 C-5.33 9.99 -5.66 10.98 -6 12 C-6.33 11.34 -6.66 10.68 -7 10 C-3.535 5.05 -3.535 5.05 0 0 Z " fill="#2CB021" transform="translate(378,424)"/>
<path d="M0 0 C0.66 0.33 1.32 0.66 2 1 C2.25 3.3125 2.25 3.3125 2 6 C0 7.8125 0 7.8125 -2 9 C-2 7.68 -2 6.36 -2 5 C-2.66 4.67 -3.32 4.34 -4 4 C-2.68 2.68 -1.36 1.36 0 0 Z " fill="#53C744" transform="translate(393,410)"/>
<path d="M0 0 C2 2 2 2 2 7 C-2.95 7 -7.9 7 -13 7 C-13 6.67 -13 6.34 -13 6 C-7.06 5.505 -7.06 5.505 -1 5 C-0.67 3.35 -0.34 1.7 0 0 Z " fill="#5E5B5B" transform="translate(274,601)"/>
<path d="M0 0 C0.86625 0.3403125 0.86625 0.3403125 1.75 0.6875 C1.09 2.0075 0.43 3.3275 -0.25 4.6875 C-3.25 4.6875 -3.25 4.6875 -6.25 2.6875 C-2.80384615 -0.38942308 -2.80384615 -0.38942308 0 0 Z " fill="#201F20" transform="translate(275.25,613.3125)"/>
<path d="M0 0 C1.65 0 3.3 0 5 0 C5 1.65 5 3.3 5 5 C3.35 5 1.7 5 0 5 C0 3.35 0 1.7 0 0 Z " fill="#2B2B2C" transform="translate(427,585)"/>
<path d="M0 0 C0.66 0.99 1.32 1.98 2 3 C-1.625 7.875 -1.625 7.875 -5 9 C-3.7508258 5.54074837 -2.32472205 2.85306797 0 0 Z " fill="#1A3C75" transform="translate(386,441)"/>
<path d="M0 0 C0.99 0.66 1.98 1.32 3 2 C0.36 4.31 -2.28 6.62 -5 9 C-5 4.61031544 -2.87194899 3.23094261 0 0 Z " fill="#193973" transform="translate(737,427)"/>
<path d="M0 0 C1.32 0.33 2.64 0.66 4 1 C3.360625 1.2475 2.72125 1.495 2.0625 1.75 C-0.18741541 2.81562433 -0.18741541 2.81562433 -0.75 5.125 C-0.8325 5.74375 -0.915 6.3625 -1 7 C-2.65 7 -4.3 7 -6 7 C-4.02 4.69 -2.04 2.38 0 0 Z " fill="#4FC642" transform="translate(397,387)"/>
<path d="M0 0 C0.66 0 1.32 0 2 0 C4.09230769 4.43076923 4.09230769 4.43076923 3.625 7.3125 C3.41875 7.869375 3.2125 8.42625 3 9 C2.01 8.67 1.02 8.34 0 8 C0 5.36 0 2.72 0 0 Z " fill="#383738" transform="translate(371,604)"/>
<path d="M0 0 C1.40907283 2.81814566 0.50872691 4.17277204 -0.4375 7.125 C-0.72496094 8.03507813 -1.01242187 8.94515625 -1.30859375 9.8828125 C-1.53675781 10.58148437 -1.76492188 11.28015625 -2 12 C-2.66 12 -3.32 12 -4 12 C-3.91253716 10.56138706 -3.80434652 9.12402492 -3.6875 7.6875 C-3.62949219 6.88699219 -3.57148438 6.08648438 -3.51171875 5.26171875 C-2.91793306 2.63727666 -2.04219706 1.69179328 0 0 Z " fill="#545254" transform="translate(338,598)"/>
<path d="M0 0 C0.33 0.66 0.66 1.32 1 2 C1.78375 1.79375 2.5675 1.5875 3.375 1.375 C4.674375 1.189375 4.674375 1.189375 6 1 C6.66 1.66 7.32 2.32 8 3 C6.88625 3.103125 5.7725 3.20625 4.625 3.3125 C3.42875 3.539375 2.2325 3.76625 1 4 C0.01 5.485 0.01 5.485 -1 7 C-1.66 6.67 -2.32 6.34 -3 6 C-1.125 1.125 -1.125 1.125 0 0 Z " fill="#181717" transform="translate(314,596)"/>
<path d="M0 0 C0.33 0 0.66 0 1 0 C1.33 3.63 1.66 7.26 2 11 C1.01 10.67 0.02 10.34 -1 10 C-1.02689216 8.52093108 -1.04634621 7.04172517 -1.0625 5.5625 C-1.07410156 4.73878906 -1.08570313 3.91507813 -1.09765625 3.06640625 C-1 1 -1 1 0 0 Z " fill="#575456" transform="translate(401,603)"/>
<path d="M0 0 C4.95 0.99 4.95 0.99 10 2 C9.67 2.99 9.34 3.98 9 5 C8.1646875 4.505 8.1646875 4.505 7.3125 4 C4.69715478 2.8690399 2.8193354 2.84337026 0 3 C0 2.01 0 1.02 0 0 Z " fill="#555455" transform="translate(315,595)"/>
<path d="M0 0 C1.9375 0.75 1.9375 0.75 4 2 C4.6875 4 4.6875 4 5 6 C5.33 6.66 5.66 7.32 6 8 C2.83884224 6.63016497 2.0072908 6.0109362 0 3 C0 2.01 0 1.02 0 0 Z " fill="#201F1F" transform="translate(372,611)"/>
<path d="M0 0 C1 2 1 2 0.25 5.5625 C-0.1625 6.696875 -0.575 7.83125 -1 9 C-1.99 9.33 -2.98 9.66 -4 10 C-3.52449439 8.51965236 -3.04448784 7.04074979 -2.5625 5.5625 C-2.29566406 4.73878906 -2.02882813 3.91507812 -1.75390625 3.06640625 C-1 1 -1 1 0 0 Z " fill="#182F69" transform="translate(712,465)"/>
<path d="M0 0 C2.625 -0.1875 2.625 -0.1875 5 0 C5 1.32 5 2.64 5 4 C4.34 4 3.68 4 3 4 C3 3.34 3 2.68 3 2 C1.35 2.33 -0.3 2.66 -2 3 C-1.34 2.01 -0.68 1.02 0 0 Z " fill="#3EBD36" transform="translate(386,415)"/>
<path d="M0 0 C1.98 0 3.96 0 6 0 C0.85714286 4.42857143 0.85714286 4.42857143 -3 5 C-2.67 4.34 -2.34 3.68 -2 3 C-1.34 3 -0.68 3 0 3 C0 2.01 0 1.02 0 0 Z " fill="#25AF1E" transform="translate(408,404)"/>
</svg>
